<svg id="RGC_LOGO" data-name="RGC LOGO" xmlns="http://www.w3.org/2000/svg" xmlns:xlink="http://www.w3.org/1999/xlink" width="739" height="106" viewBox="0 0 739 106">
  <defs>
    <style>
      .cls-1 {
        fill: none;
        stroke: #707070;
      }

      .cls-2 {
        clip-path: url(#clip-path);
      }

      .cls-3 {
        fill: #fff;
      }
    </style>
    <clipPath id="clip-path">
      <rect id="Rectangle_16" data-name="Rectangle 16" class="cls-1" width="739" height="106" transform="translate(0.289 0.291)"/>
    </clipPath>
  </defs>
  <g id="RGC_LOGO-2" data-name="RGC LOGO" class="cls-2" transform="translate(-0.289 -0.291)">
    <g id="Regents_Gate_Logo" data-name="Regents Gate Logo" transform="translate(6.511 1.395)">
      <path id="Path_1" data-name="Path 1" class="cls-3" d="M662.286,65.8h41.52V53.17h-.743c-2.03,9.854-4.048,11.475-13.84,11.475h-11.2V41.286h3.169c8.1,0,10.2,1.956,11.673,7.9h.743V32.237h-.743c-1.485,5.942-3.578,7.9-11.673,7.9H678.02V17.32h10.535c9.854,0,11.884,1.622,13.84,11.475h.743V16.169H662.3v.743c4.258.8,5,1.424,5,3.379V61.675c0,1.956-.743,2.562-5,3.379V65.8Zm-39.291,0h20.054v-.743c-3.912-.8-4.655-1.424-4.655-3.38V17.32h3.033c9.792,0,12.02,1.956,13.84,11.475h.743V16.169H610.034V28.8h.743c1.758-9.52,3.986-11.475,13.84-11.475h3.033V61.675c0,1.956-.743,2.562-4.655,3.38V65.8Zm-51.373-16.13,9.049-22.146h.272l9.792,22.146h-19.1ZM559.329,65.8h13.3v-.743c-4.184-.879-5.942-1.622-5.942-2.971a3.524,3.524,0,0,1,.272-1.077l4.184-10.2h20.116l4.456,10.126a3.4,3.4,0,0,1,.334,1.213c0,1.287-1.424,2.03-4.791,2.909V65.8H613.4v-.743c-4.382-1.077-5.261-1.956-6.276-4.122L586.266,16.169H584.1L565.741,60.932c-.879,2.166-2.166,3.033-6.412,4.122Zm-23.694.607a55.481,55.481,0,0,0,17.356-2.909V43.44a60.7,60.7,0,0,1-15.734,1.622V45.8c4.258.8,5,1.424,5,3.379V63.63a18.36,18.36,0,0,1-7.093,1.547c-9.247,0-16.477-8.368-16.477-24.238s8.5-24.238,16.749-24.238c6.214,0,12.218,4.593,14.447,13.9h.8V18.583a38.608,38.608,0,0,0-15.263-3.033c-13.7,0-28.15,6.821-28.15,25.39s13.567,25.451,28.361,25.451m-76.491,0c11.277,0,19.708-4.456,19.708-14.917,0-13.84-15.263-16.34-23.557-19.448C450.368,30.071,448,27.57,448,24.054c0-3.912,2.971-7.353,10.4-7.353s14.31,3.516,15.66,13.506h.8V18.6a49.614,49.614,0,0,0-16.538-3.033c-9.854,0-17.888,3.85-17.888,13.233,0,11.884,11.946,14.112,20.525,17.554,5.942,2.5,9.854,5.608,9.854,10.46s-3.912,8.443-10.534,8.443c-7.093,0-16.341-4.184-17.752-14.991h-.8l.062,13.233A58.965,58.965,0,0,0,459.145,66.4M399.527,65.8h20.054v-.743c-3.912-.8-4.655-1.424-4.655-3.379V17.32h3.033c9.792,0,12.02,1.956,13.84,11.475h.743V16.169H386.566V28.8h.743c1.758-9.52,3.986-11.475,13.84-11.475h3.033V61.675c0,1.956-.743,2.562-4.655,3.38V65.8Zm-67.578,0h13.233v-.743c-5.261-1.213-6.078-2.29-6.078-4.258V23.733h.334L372.182,65.8h2.29V21.17c0-1.956.8-3.033,6.078-4.258v-.743H367.317v.743c5.2,1.213,6,2.29,6,4.258V50.2h-.272l-26.33-34.03H331.937v.743a5.678,5.678,0,0,1,3.912,2.228l2.092,2.7V60.8c0,1.956-.743,3.033-6,4.258V65.8Zm-47.8,0h41.519V53.17h-.743c-2.03,9.854-4.048,11.475-13.84,11.475h-11.2V41.286h3.169c8.1,0,10.2,1.956,11.673,7.9h.743V32.237h-.743c-1.485,5.942-3.578,7.9-11.673,7.9h-3.169V17.32h10.535c9.854,0,11.884,1.622,13.84,11.475H325V16.169H284.166v.743c4.258.8,5,1.424,5,3.379V61.675c0,1.956-.743,2.562-5,3.379V65.8Zm-25.315.607a55.481,55.481,0,0,0,17.355-2.909V43.44a60.7,60.7,0,0,1-15.734,1.622V45.8c4.258.8,5,1.424,5,3.38V63.63a18.359,18.359,0,0,1-7.093,1.547c-9.247,0-16.477-8.368-16.477-24.238S250.4,16.7,258.641,16.7c6.214,0,12.218,4.593,14.446,13.9h.8V18.583a38.609,38.609,0,0,0-15.263-3.033c-13.7,0-28.15,6.821-28.15,25.39s13.568,25.451,28.361,25.451m-76.292-.607h41.52V53.158h-.743c-2.03,9.854-4.048,11.475-13.84,11.475h-11.2V41.274h3.169c8.1,0,10.2,1.956,11.673,7.9h.743V32.225h-.743c-1.485,5.942-3.578,7.9-11.673,7.9H198.28V17.308h10.535c9.854,0,11.884,1.622,13.84,11.475h.743V16.157H182.559V16.9c4.258.8,5,1.424,5,3.379V61.662c0,1.956-.743,2.562-5,3.379v.743ZM144.134,41.41v-24.1h4.258c7.093,0,11.748,4.655,11.748,12.082s-4.655,12.02-11.748,12.02ZM170.6,66.119a46.822,46.822,0,0,0,8.368-1.015v-.8a6.01,6.01,0,0,1-.941.062c-2.426,0-4.184-1.287-5.942-4.184l-7.427-11.748c-2.166-3.516-4.655-5.4-7.972-6.214v-.2c8.443-1.287,14.583-5.125,14.583-12.627,0-9.718-10.126-13.233-22.208-13.233H128.4V16.9c4.258.8,5,1.424,5,3.379V61.662c0,1.956-.743,2.562-5,3.379v.743h20.723v-.743c-4.258-.8-5-1.424-5-3.379v-19.1h5.261l10.807,17.888c2.228,4.122,5.608,5.67,10.4,5.67" transform="translate(22.155 -8.63)"/>
      <path id="Path_2" data-name="Path 2" class="cls-3" d="M370.183,93.6h11.475V90.876h-8.17V74.114h-3.305V93.6Zm-44.973,0h3.429l1.919-5.1H338.2l1.944,5.1H343.6l-7.576-19.485h-3.157L325.2,93.6Zm7.366-10.77q.52-1.356.928-2.525c.26-.768.557-1.609.867-2.525h.062c.285.966.557,1.832.817,2.587s.557,1.56.916,2.426l1.139,3.157h-5.9ZM287.441,74.1v2.723h5.781V93.587h3.305V76.825h5.88V74.1H287.441ZM257.347,93.587h3.305V74.1h-3.305ZM219.975,76.7h2.439a6.438,6.438,0,0,1,1.572.186,4.145,4.145,0,0,1,1.325.582,2.832,2.832,0,0,1,.928,1.052,3.392,3.392,0,0,1,.334,1.572,3.51,3.51,0,0,1-.371,1.721,2.763,2.763,0,0,1-1.015,1.052,4.589,4.589,0,0,1-1.535.545,11.655,11.655,0,0,1-1.931.149h-1.758v-6.87ZM216.67,93.587h3.305V86.2h2.686a10.911,10.911,0,0,0,2.921-.371,6.85,6.85,0,0,0,2.34-1.127,5.232,5.232,0,0,0,1.547-1.919,6.236,6.236,0,0,0,.557-2.736,6.011,6.011,0,0,0-.508-2.525,5.255,5.255,0,0,0-1.424-1.857A6.389,6.389,0,0,0,225.9,74.5a9.4,9.4,0,0,0-2.86-.4H216.67V93.587Zm-44.973,0h3.429l1.919-5.1h7.638l1.944,5.1h3.466L182.516,74.1h-3.157l-7.675,19.485Zm7.366-10.77q.52-1.356.928-2.525c.272-.768.557-1.609.867-2.525h.062c.285.966.557,1.832.817,2.587s.557,1.56.916,2.426l1.139,3.157h-5.9Zm-40.232,8a5.023,5.023,0,0,1-2.005-1.3,6.361,6.361,0,0,1-1.362-2.29,10.142,10.142,0,0,1-.508-3.392,9.82,9.82,0,0,1,.52-3.392,6.259,6.259,0,0,1,1.411-2.3,5.331,5.331,0,0,1,2.067-1.3,7.71,7.71,0,0,1,2.525-.4,7.865,7.865,0,0,1,2.241.272,15.975,15.975,0,0,1,1.993.743l.767-2.5a10.082,10.082,0,0,0-2.216-.854,13.4,13.4,0,0,0-3.206-.322,10.774,10.774,0,0,0-3.912.681,8.531,8.531,0,0,0-3.058,1.981,8.924,8.924,0,0,0-1.993,3.169,11.885,11.885,0,0,0-.706,4.221,11.687,11.687,0,0,0,.743,4.283,9.185,9.185,0,0,0,2.03,3.157,8.394,8.394,0,0,0,3.033,1.944,10.417,10.417,0,0,0,3.763.668,14.472,14.472,0,0,0,3.181-.3,11.291,11.291,0,0,0,2.29-.755l-.706-2.562a10.567,10.567,0,0,1-1.906.693,10.277,10.277,0,0,1-2.525.26,7.106,7.106,0,0,1-2.463-.421" transform="translate(22.866 5.223)"/>
      <g id="Group_1" data-name="Group 1" transform="translate(0 0)">
        <path id="Path_3" data-name="Path 3" class="cls-3" d="M62.254,80.79H11.45l.755,11.451H112.29l.755-11.451Z" transform="translate(-5.669 6.891)"/>
        <path id="Path_4" data-name="Path 4" class="cls-3" d="M91.354,45.228,63.365,10.864l-28,34.364L6.78,9.96,12.066,90H114.652L119.937,9.96Z" transform="translate(-6.78 -9.96)"/>
      </g>
    </g>
  </g>
</svg>
